REM DIRINDEX 1\2,1\3
REM DIRNAME folder01,folder02,folder03
TITLE ""
FILE "Track87.mp3" MP3
  TRACK 01 AUDIO
    TITLE "2:cjc103_770"
    INDEX 01 00:00:00
  TRACK 02 AUDIO
    TITLE "0:"
    INDEX 01 00:22:72
  TRACK 03 AUDIO
    TITLE "3:cjc103_771"
    INDEX 01 00:24:37
  TRACK 04 AUDIO
    TITLE "0:"
    INDEX 01 00:26:11
